<svg width="30" height="31" viewBox="0 0 30 31" fill="none" xmlns="http://www.w3.org/2000/svg">
<path fill-rule="evenodd" clip-rule="evenodd" d="M9.22078 0.0910036C8.63818 0.349846 8.31169 0.880933 8.31169 1.56969C8.31169 2.16043 8.36052 2.27145 8.7987 2.67772C9.26948 3.1142 9.28571 3.15901 9.28571 4.01752V4.90573L10.3247 5.95069C11.3562 6.9883 11.3636 7.00052 11.3636 7.67508V8.35451L10.2622 8.40076C9.21844 8.44478 9.13857 8.46961 8.73623 8.87666C8.3339 9.28371 8.30935 9.36452 8.26584 10.4205L8.22013 11.5349H5.63779H3.05545L2.60909 11.0421C2.2061 10.5972 2.09909 10.5494 1.50597 10.5494C0.937273 10.5494 0.792208 10.6071 0.424546 10.9789C0.0590911 11.3487 0 11.4994 0 12.0604C0 12.6215 0.0590911 12.7722 0.424546 13.1419C0.792208 13.5138 0.937273 13.5714 1.50597 13.5714C2.09909 13.5714 2.2061 13.5236 2.60909 13.0787L3.05545 12.586H5.65104H8.24675V13.6371V14.6883H7.20948C6.17688 14.6883 6.17039 14.686 5.72597 14.1955C5.32299 13.7506 5.21597 13.7028 4.62286 13.7028C4.05416 13.7028 3.90909 13.7605 3.54143 14.1323C3.17597 14.5021 3.11688 14.6528 3.11688 15.2138C3.11688 15.7749 3.17597 15.9256 3.54143 16.2953C3.90909 16.6672 4.05416 16.7248 4.62286 16.7248C5.21597 16.7248 5.32299 16.677 5.72597 16.2321C6.17039 15.7416 6.17688 15.7394 7.20948 15.7394H8.24675V16.7905V17.8417H5.65104H3.05545L2.60909 17.349C2.2061 16.9041 2.09909 16.8562 1.50597 16.8562C0.937273 16.8562 0.792208 16.9139 0.424546 17.2858C0.0590911 17.6555 0 17.8062 0 18.3672C0 18.9283 0.0590911 19.079 0.424546 19.4487C0.792208 19.8206 0.937273 19.8782 1.50597 19.8782C2.09909 19.8782 2.2061 19.8304 2.60909 19.3855L3.05545 18.8928H5.63779H8.22013L8.26584 20.0071C8.30935 21.0631 8.3339 21.1439 8.73623 21.551C9.13857 21.9581 9.21844 21.9829 10.2622 22.0269L11.3636 22.0732V22.7526C11.3636 23.4271 11.3562 23.4394 10.3247 24.477L9.28571 25.5219V26.4101C9.28571 27.2687 9.26948 27.3135 8.7987 27.7499C8.35896 28.1577 8.31169 28.2659 8.31169 28.866C8.31169 29.4414 8.3687 29.5881 8.73623 29.9601C9.10169 30.3298 9.25065 30.3896 9.80519 30.3896C10.3597 30.3896 10.5087 30.3298 10.8742 29.9601C11.2417 29.5881 11.2987 29.4414 11.2987 28.866C11.2987 28.2659 11.2514 28.1577 10.8117 27.7499C10.3673 27.3378 10.3247 27.238 10.3247 26.6072C10.3247 25.9181 10.3275 25.9132 11.3636 24.8711L12.4026 23.8262V22.9361V22.0462H13.4416H14.4805V23.0956C14.4805 24.1403 14.4783 24.1469 13.9935 24.5965C13.5538 25.0042 13.5065 25.1125 13.5065 25.7126C13.5065 26.2879 13.5635 26.4347 13.931 26.8067C14.2965 27.1764 14.4455 27.2362 15 27.2362C15.5545 27.2362 15.7035 27.1764 16.069 26.8067C16.4365 26.4347 16.4935 26.2879 16.4935 25.7126C16.4935 25.1125 16.4462 25.0042 16.0065 24.5965C15.5217 24.1469 15.5195 24.1403 15.5195 23.0956V22.0462H16.5584H17.5974V22.9361V23.8262L18.6364 24.8711C19.6725 25.9132 19.6753 25.9181 19.6753 26.6072C19.6753 27.238 19.6327 27.3378 19.1883 27.7499C18.7486 28.1577 18.7013 28.2659 18.7013 28.866C18.7013 29.4414 18.7583 29.5881 19.1258 29.9601C19.4913 30.3298 19.6403 30.3896 20.1948 30.3896C20.7494 30.3896 20.8983 30.3298 21.2638 29.9601C21.6313 29.5881 21.6883 29.4414 21.6883 28.866C21.6883 28.2659 21.641 28.1577 21.2013 27.7499C20.7305 27.3135 20.7143 27.2687 20.7143 26.4101V25.5219L19.6753 24.477C18.6438 23.4394 18.6364 23.4271 18.6364 22.7526V22.0732L19.7378 22.0269C20.7816 21.9829 20.8614 21.9581 21.2638 21.551C21.6661 21.1439 21.6906 21.0631 21.7342 20.0071L21.7799 18.8928H24.3622H26.9445L27.3909 19.3855C27.7939 19.8304 27.9009 19.8782 28.494 19.8782C29.0627 19.8782 29.2078 19.8206 29.5755 19.4487C29.9409 19.079 30 18.9283 30 18.3672C30 17.8062 29.9409 17.6555 29.5755 17.2858C29.2078 16.9139 29.0627 16.8562 28.494 16.8562C27.9009 16.8562 27.7939 16.9041 27.3909 17.349L26.9445 17.8417H24.349H21.7532V16.7905V15.7394H22.7905C23.8231 15.7394 23.8296 15.7416 24.274 16.2321C24.677 16.677 24.784 16.7248 25.3771 16.7248C25.9458 16.7248 26.0909 16.6672 26.4586 16.2953C26.824 15.9256 26.8831 15.7749 26.8831 15.2138C26.8831 14.6528 26.824 14.5021 26.4586 14.1323C26.0909 13.7605 25.9458 13.7028 25.3771 13.7028C24.784 13.7028 24.677 13.7506 24.274 14.1955C23.8296 14.686 23.8231 14.6883 22.7905 14.6883H21.7532V13.6371V12.586H24.349H26.9445L27.3909 13.0787C27.7939 13.5236 27.9009 13.5714 28.494 13.5714C29.0627 13.5714 29.2078 13.5138 29.5755 13.1419C29.9409 12.7722 30 12.6215 30 12.0604C30 11.4994 29.9409 11.3487 29.5755 10.9789C29.2078 10.6071 29.0627 10.5494 28.494 10.5494C27.9009 10.5494 27.7939 10.5972 27.3909 11.0421L26.9445 11.5349H24.3622H21.7799L21.7342 10.4205C21.6906 9.36452 21.6661 9.28371 21.2638 8.87666C20.8614 8.46961 20.7816 8.44478 19.7378 8.40076L18.6364 8.35451V7.67508C18.6364 7.00052 18.6438 6.9883 19.6753 5.95069L20.7143 4.90573V4.01752C20.7143 3.15901 20.7305 3.1142 21.2013 2.67772C21.641 2.27001 21.6883 2.16174 21.6883 1.56167C21.6883 0.986309 21.6313 0.839544 21.2638 0.467573C20.8983 0.0978361 20.7494 0.0380526 20.1948 0.0380526C19.6403 0.0380526 19.4913 0.0978361 19.1258 0.467573C18.7583 0.839544 18.7013 0.986309 18.7013 1.56167C18.7013 2.16174 18.7486 2.27001 19.1883 2.67772C19.6327 3.0899 19.6753 3.18962 19.6753 3.82044C19.6753 4.50959 19.6725 4.51445 18.6364 5.55652L17.5974 6.60148V7.49153V8.38145H16.5584H15.5195V7.33202C15.5195 6.28732 15.5217 6.28075 16.0065 5.83113C16.4462 5.42342 16.4935 5.31515 16.4935 4.71508C16.4935 4.13972 16.4365 3.99295 16.069 3.62098C15.7035 3.25124 15.5545 3.19146 15 3.19146C14.4455 3.19146 14.2965 3.25124 13.931 3.62098C13.5635 3.99295 13.5065 4.13972 13.5065 4.71508C13.5065 5.31515 13.5538 5.42342 13.9935 5.83113C14.4783 6.28075 14.4805 6.28732 14.4805 7.33202V8.38145H13.4416H12.4026V7.49153V6.60148L11.3636 5.55652C10.3275 4.51445 10.3247 4.50959 10.3247 3.82044C10.3247 3.18962 10.3673 3.0899 10.8117 2.67772C11.2514 2.27001 11.2987 2.16174 11.2987 1.56167C11.2987 0.994061 11.2401 0.837836 10.897 0.490698C10.4682 0.0568416 9.70636 -0.124742 9.22078 0.0910036ZM10.1896 1.21427C10.5347 1.63486 10.0279 2.28091 9.57792 1.99422C9.28935 1.8104 9.21883 1.46037 9.42078 1.21427C9.6213 0.969753 9.98909 0.969753 10.1896 1.21427ZM20.5792 1.21427C20.7812 1.46037 20.7106 1.8104 20.4221 1.99422C19.9721 2.28091 19.4653 1.63486 19.8104 1.21427C20.0109 0.969753 20.3787 0.969753 20.5792 1.21427ZM15.3844 4.36768C15.7295 4.78827 15.2227 5.43432 14.7727 5.14763C14.3231 4.86106 14.4832 4.1769 15 4.1769C15.1253 4.1769 15.2983 4.2627 15.3844 4.36768ZM20.5584 9.59025C20.7825 9.8169 20.7825 20.6108 20.5584 20.8374C20.3344 21.0641 9.66558 21.0641 9.44156 20.8374C9.21753 20.6108 9.21753 9.8169 9.44156 9.59025C9.66558 9.3636 20.3344 9.3636 20.5584 9.59025ZM1.87792 11.7256C2.22299 12.1462 1.71623 12.7923 1.26623 12.5056C0.816623 12.219 0.976753 11.5349 1.49351 11.5349C1.61883 11.5349 1.79182 11.6207 1.87792 11.7256ZM28.8909 11.7256C29.236 12.1462 28.7292 12.7923 28.2792 12.5056C27.8296 12.219 27.9897 11.5349 28.5065 11.5349C28.6318 11.5349 28.8048 11.6207 28.8909 11.7256ZM4.99481 14.879C5.33987 15.2996 4.83312 15.9457 4.38312 15.659C3.93351 15.3724 4.09364 14.6883 4.61039 14.6883C4.73571 14.6883 4.9087 14.7741 4.99481 14.879ZM25.774 14.879C26.1191 15.2996 25.6123 15.9457 25.1623 15.659C24.7127 15.3724 24.8729 14.6883 25.3896 14.6883C25.5149 14.6883 25.6879 14.7741 25.774 14.879ZM1.87792 18.0325C2.22299 18.453 1.71623 19.0991 1.26623 18.8124C0.816623 18.5258 0.976753 17.8417 1.49351 17.8417C1.61883 17.8417 1.79182 17.9275 1.87792 18.0325ZM28.8909 18.0325C29.236 18.453 28.7292 19.0991 28.2792 18.8124C27.8296 18.5258 27.9897 17.8417 28.5065 17.8417C28.6318 17.8417 28.8048 17.9275 28.8909 18.0325ZM15.3844 25.3904C15.7295 25.811 15.2227 26.457 14.7727 26.1703C14.3231 25.8838 14.4832 25.1996 15 25.1996C15.1253 25.1996 15.2983 25.2854 15.3844 25.3904ZM10.1896 28.5438C10.5347 28.9644 10.0279 29.6105 9.57792 29.3238C9.12831 29.0372 9.28844 28.353 9.80519 28.353C9.93052 28.353 10.1035 28.4388 10.1896 28.5438ZM20.5792 28.5438C20.9243 28.9644 20.4175 29.6105 19.9675 29.3238C19.5179 29.0372 19.6781 28.353 20.1948 28.353C20.3201 28.353 20.4931 28.4388 20.5792 28.5438Z" fill="#04AA6D"/>
<path d="M14.9056 10.1298L19.292 12.6622V17.7272L14.9056 20.2596L10.5193 17.7272V12.6622L14.9056 10.1298Z" fill="#04AA6D"/>
</svg>
