<svg width="32" height="32" viewBox="0 0 32 32" fill="none" xmlns="http://www.w3.org/2000/svg">
<path d="M0 16C0 2.824 2.824 0 16 0C29.176 0 32 2.824 32 16C32 29.176 29.176 32 16 32C2.824 32 0 29.176 0 16Z" fill="white"/>
<path d="M13.1434 23.6801V21.0259C13.1434 20.3484 13.6966 19.7992 14.3791 19.7992H16.874C17.2017 19.7992 17.516 19.9284 17.7478 20.1585C17.9795 20.3885 18.1097 20.7006 18.1097 21.0259V23.6801C18.1076 23.9618 18.2189 24.2326 18.4188 24.4325C18.6187 24.6324 18.8907 24.7448 19.1745 24.7448H20.8766C21.6715 24.7469 22.4346 24.4348 22.9974 23.8775C23.5603 23.3202 23.8766 22.5635 23.8766 21.7743V14.2131C23.8766 13.5756 23.5919 12.9709 23.0994 12.562L17.3092 7.97119C16.302 7.16627 14.8589 7.19226 13.8817 8.03291L8.22366 12.562C7.70782 12.9589 7.39951 13.5653 7.38428 14.2131V21.7666C7.38428 23.4114 8.72743 24.7448 10.3843 24.7448H12.0475C12.6368 24.7449 13.1158 24.2728 13.1201 23.6878L13.1434 23.6801Z" fill="#04AA6D"/>
<path d="M13.7793 21.2281C13.7793 20.7244 14.1536 20.316 14.6153 20.316H16.6456C17.1074 20.316 17.4817 20.7244 17.4817 21.2281V23.443C17.4817 23.9466 17.1074 24.355 16.6456 24.355H14.6153C14.1536 24.355 13.7793 23.9466 13.7793 23.443V21.2281Z" fill="#254377"/>
</svg>
