<svg width="32" height="32" viewBox="0 0 32 32" fill="none" xmlns="http://www.w3.org/2000/svg">
<path d="M0 16C0 2.824 2.824 0 16 0C29.176 0 32 2.824 32 16C32 29.176 29.176 32 16 32C2.824 32 0 29.176 0 16Z" fill="white"/>
<path fill-rule="evenodd" clip-rule="evenodd" d="M22.018 18.4068C22.3831 18.485 22.6611 18.6407 22.9565 18.9326C23.359 19.3302 23.5196 19.7248 23.514 20.3027C23.5072 21.0064 23.0973 21.642 22.451 21.9507C22.001 22.1656 21.6064 22.2071 21.1377 22.0885C20.7677 21.9949 20.5526 21.8724 20.2654 21.5915C19.5015 20.8447 19.501 19.6712 20.2642 18.9213C20.7448 18.4492 21.3657 18.267 22.018 18.4068ZM21.2485 19.703C20.9024 19.964 20.8593 20.4027 21.1485 20.7194C21.2921 20.8765 21.5516 20.9706 21.7472 20.9362C22.3139 20.8368 22.5355 20.1717 22.1352 19.772C21.9912 19.6282 21.8609 19.5847 21.6064 19.5957C21.4172 19.6039 21.355 19.6225 21.2485 19.703Z" fill="#04AA6D"/>
<path fill-rule="evenodd" clip-rule="evenodd" d="M10.6499 18.4068C11.0149 18.485 11.2929 18.6407 11.5884 18.9326C11.9909 19.3302 12.1514 19.7248 12.1458 20.3027C12.139 21.0064 11.7291 21.642 11.0828 21.9507C10.6328 22.1656 10.2382 22.2071 9.76956 22.0885C9.39957 21.9949 9.18447 21.8724 8.89722 21.5915C8.13333 20.8447 8.13284 19.6712 8.89608 18.9213C9.37664 18.4492 9.99751 18.267 10.6499 18.4068ZM9.88127 19.703C9.53524 19.964 9.49212 20.4027 9.78134 20.7194C9.92488 20.8765 10.1844 20.9706 10.38 20.9362C10.9467 20.8368 11.1683 20.1717 10.768 19.772C10.624 19.6282 10.4937 19.5847 10.2392 19.5957C10.0501 19.6039 9.98785 19.6225 9.88127 19.703Z" fill="#04AA6D"/>
<path fill-rule="evenodd" clip-rule="evenodd" d="M20.9575 10.0703C20.9164 10.0152 20.8272 9.94228 20.7592 9.90818C20.6428 9.84976 20.256 9.84611 14.2069 9.84607C7.90417 9.846 7.77558 9.84735 7.64048 9.9152C7.6221 9.92442 7.60502 9.93131 7.5892 9.9377C7.56968 9.94557 7.55207 9.95269 7.53607 9.96251C7.38325 10.0564 7.38336 10.3965 7.38444 13.9896L7.3848 19.7294L7.46133 19.853C7.61523 20.1014 7.64132 20.0929 7.76675 19.7526C7.90262 19.3843 8.00882 19.1961 8.23973 18.9144C8.47405 18.6286 8.82089 18.3577 9.16935 18.1882C9.60323 17.9771 9.84871 17.9238 10.3953 17.922C10.9546 17.9201 11.1778 17.9706 11.6754 18.2112C11.9679 18.3527 12.068 18.4263 12.3617 18.716C12.7357 19.085 12.9184 19.3751 13.0669 19.8359L13.1469 20.0843L18.6236 20.1025L18.7231 19.8014C18.9545 19.1014 19.5052 18.4873 20.1848 18.1714C20.6244 17.967 20.8574 17.9196 21.4108 17.9219C21.8624 17.9238 21.9221 17.9322 22.2381 18.0387C23.1402 18.3428 23.8256 19.0356 24.066 19.8865L24.1269 20.102H24.7976C25.554 20.102 25.6578 20.0756 25.78 19.8514C25.8415 19.7385 25.8458 19.6004 25.8458 17.7504C25.8458 15.6081 25.8453 15.6017 25.6522 15.4771C25.5998 15.4434 25.4746 15.4003 25.3741 15.3816L25.3479 15.3767C25.28 15.3642 25.2263 15.3544 25.1772 15.3336C24.991 15.255 24.8713 15.0203 24.2973 13.8947L24.2387 13.7796C23.5062 12.3434 23.5021 12.3365 23.3468 12.2625C23.2014 12.1932 23.1305 12.1882 22.2918 12.1881C21.4652 12.188 21.3835 12.1824 21.2779 12.119C21.0777 11.9989 21.0698 11.9608 21.0502 11.0285C21.0335 10.2319 21.0268 10.1632 20.9575 10.0703ZM21.773 13.3831C21.8136 13.3323 21.9069 13.2744 21.9803 13.2543C22.1388 13.2109 22.6835 13.2107 22.8299 13.2538C22.8866 13.2706 22.9655 13.3131 23.0053 13.3484C23.1022 13.4343 23.7905 14.7914 23.7905 14.8965C23.7905 14.9421 23.753 15.0141 23.7071 15.0566C23.6263 15.1312 23.5964 15.1337 22.7841 15.1337H21.9444L21.6992 14.8924V14.1839C21.6992 13.5238 21.7043 13.469 21.773 13.3831ZM10.8076 11.5491C10.5713 11.5491 10.3797 11.7398 10.3797 11.9749C10.3797 12.21 10.5713 12.4007 10.8076 12.4007H16.1871C16.4235 12.4007 16.6151 12.21 16.6151 11.9749C16.6151 11.7398 16.4235 11.5491 16.1871 11.5491H10.8076ZM8.97372 13.1914C8.97372 12.9562 9.16529 12.7656 9.40163 12.7656H14.7811C15.0175 12.7656 15.2091 12.9562 15.2091 13.1914C15.2091 13.4265 15.0175 13.6171 14.7811 13.6171H9.40163C9.16529 13.6171 8.97372 13.4265 8.97372 13.1914ZM12.0303 13.9821C11.7939 13.9821 11.6023 14.1727 11.6023 14.4078C11.6023 14.643 11.7939 14.8336 12.0303 14.8336H13.9253C14.1617 14.8336 14.3532 14.643 14.3532 14.4078C14.3532 14.1727 14.1617 13.9821 13.9253 13.9821H12.0303Z" fill="#04AA6D"/>
</svg>
