<svg width="32" height="32" viewBox="0 0 32 32" fill="none" xmlns="http://www.w3.org/2000/svg">
<path d="M0 16C0 2.824 2.824 0 16 0C29.176 0 32 2.824 32 16C32 29.176 29.176 32 16 32C2.824 32 0 29.176 0 16Z" fill="white"/>
<path fill-rule="evenodd" clip-rule="evenodd" d="M8.70317 7.43751C8.63511 7.47333 8.5498 7.54322 8.51357 7.59283C8.47733 7.64244 7.92714 9.09558 7.29091 10.822C6.04021 14.2158 6.06739 14.1242 6.23931 14.3656C6.32159 14.4812 6.97009 14.953 7.41949 15.2242C8.28134 15.7445 9.4263 16.2208 10.4193 16.472L10.7485 16.5554L11.1059 16.3895C11.5507 16.1831 12.2613 15.9242 12.8204 15.7648C13.702 15.5135 14.5476 15.3839 15.7594 15.3143C17.1518 15.2342 18.1937 14.9619 19.3632 14.3724C19.8108 14.1468 20.3743 13.7943 20.7179 13.525C20.9094 13.3749 21.2807 13.1853 21.3831 13.1853C21.4378 13.1853 21.6529 12.6358 21.6797 12.4276C21.7138 12.1634 21.5154 11.9555 20.7359 11.4383C19.8245 10.8337 18.9057 10.4065 17.7947 10.0709C16.9661 9.8205 16.2836 9.71172 15.0435 9.63234C13.8483 9.55585 13.143 9.42517 12.2335 9.11163C11.2224 8.76306 10.3093 8.26753 9.29112 7.51486C9.10191 7.37498 8.87798 7.34554 8.70317 7.43751ZM11.1778 11.6744C11.3365 11.7707 11.4196 11.9615 11.3984 12.1813C11.3519 12.6654 10.6856 12.8231 10.4342 12.4096C10.3249 12.2296 10.3118 12.0881 10.3884 11.9152C10.4688 11.7339 10.5272 11.6794 10.7122 11.6128C10.8683 11.5566 11.016 11.5762 11.1778 11.6744ZM14.226 11.6346C15.0814 11.7968 15.6728 12.6336 15.5281 13.4771C15.4676 13.8299 15.3267 14.102 15.0706 14.3605C14.5534 14.8826 13.7835 14.9935 13.1331 14.6396C12.9239 14.5258 12.6003 14.1955 12.4942 13.9876C12.1678 13.348 12.2825 12.6019 12.7854 12.0928C13.1702 11.7033 13.6999 11.5348 14.226 11.6346ZM17.2447 13.8706C17.6058 14.0907 17.5898 14.6304 17.2166 14.8178C16.9735 14.94 16.6959 14.8625 16.5382 14.6285C16.4674 14.5234 16.4555 14.4677 16.4675 14.2961C16.4771 14.1591 16.5054 14.0636 16.5519 14.0113C16.7434 13.796 17.0277 13.7383 17.2447 13.8706ZM21.5676 14.2515C21.509 14.2821 21.3953 14.3605 21.315 14.4256C20.8637 14.792 19.9631 15.3182 19.3104 15.5969C18.1489 16.0928 17.1479 16.3218 15.8099 16.3977C14.6069 16.466 13.9309 16.5711 13.0131 16.8326C11.732 17.1976 10.4893 17.8191 9.43417 18.6225C9.17744 18.8179 9.06149 18.9902 9.06149 19.1763C9.06149 19.231 10.8512 24.2297 11.3033 25.438C11.4173 25.7426 11.6629 25.8942 11.9428 25.8327C12.0023 25.8196 12.2431 25.6706 12.4779 25.5015C13.0187 25.1121 13.3757 24.8967 13.9576 24.6087C15.2296 23.979 16.4448 23.6692 17.9391 23.5938C19.8283 23.4984 21.3373 23.0886 22.9012 22.2462C23.6317 21.8528 24.4244 21.2901 24.5415 21.082C24.5821 21.0098 24.6153 20.9016 24.6153 20.8416C24.6153 20.6875 22.3168 14.4867 22.2207 14.3815C22.0508 14.1956 21.7787 14.1415 21.5676 14.2515ZM20.1694 18.4423C20.3415 18.5707 20.407 18.693 20.407 18.886C20.407 19.287 19.9933 19.5435 19.6359 19.364C19.2489 19.1696 19.2485 18.6206 19.6352 18.4094C19.7894 18.3252 20.0326 18.3401 20.1694 18.4423ZM17.2341 18.4362C17.5375 18.5151 17.766 18.6509 17.9887 18.8843C18.2096 19.1159 18.313 19.299 18.3904 19.596C18.6296 20.5142 18.0159 21.4407 17.0639 21.5984C16.0058 21.7737 15.0442 20.8061 15.2256 19.7487C15.3894 18.7936 16.3061 18.1945 17.2341 18.4362ZM14.0862 20.6744C14.1377 20.7127 14.2056 20.7872 14.2371 20.8399C14.3171 20.974 14.3102 21.2586 14.2235 21.4008C14.0871 21.6245 13.7555 21.7066 13.5077 21.578C13.1538 21.3943 13.1602 20.8194 13.5183 20.635C13.6616 20.5613 13.9623 20.5821 14.0862 20.6744Z" fill="#04AA6D"/>
<path d="M16.2818 20.8187C15.8906 20.5286 15.91 19.9845 16.3193 19.7682C16.7157 19.5587 17.1764 19.8034 17.2271 20.2503C17.2834 20.7461 16.6762 21.1112 16.2818 20.8187Z" fill="#04AA6D"/>
<path d="M13.5414 12.9628C13.5191 12.7051 13.6283 12.5101 13.8667 12.3821C14.4033 12.094 14.992 12.7001 14.6847 13.2244C14.3738 13.7551 13.5947 13.5769 13.5414 12.9628Z" fill="#04AA6D"/>
</svg>
