<svg width="32" height="32" viewBox="0 0 32 32" fill="none" xmlns="http://www.w3.org/2000/svg">
<path d="M0 16C0 2.824 2.824 0 16 0C29.176 0 32 2.824 32 16C32 29.176 29.176 32 16 32C2.824 32 0 29.176 0 16Z" fill="white"/>
<path fill-rule="evenodd" clip-rule="evenodd" d="M19.9915 14.6087L17.6795 17.5919C17.4955 17.8326 17.1755 17.8958 16.9195 17.7598L16.8475 17.7126L14.5676 15.9999L12.5596 18.5846C12.4476 18.7358 12.2724 18.8326 12.0876 18.8246C11.9516 18.8246 11.8316 18.7766 11.7196 18.7046C11.4796 18.5278 11.4156 18.1998 11.5516 17.9446L11.6004 17.8726L13.9676 14.7919C14.0644 14.6639 14.2084 14.5767 14.3676 14.5527C14.5276 14.5359 14.6876 14.5767 14.8236 14.6807L17.0403 16.4247L18.9755 13.9207C19.1043 13.7447 19.3195 13.6487 19.5363 13.6727C19.7435 13.6887 19.9363 13.8247 20.0235 14.0247C20.1115 14.2247 20.0875 14.4487 19.9595 14.6247L19.9915 14.6087ZM19.3275 9.40883C19.3275 9.20883 19.3435 9.00883 19.3755 8.80884H12.9364C10.2157 8.80884 8.61572 10.4248 8.61572 13.1448V19.0638C8.61572 21.7766 10.2157 23.3846 12.9364 23.3846H18.8475C21.5675 23.3846 23.1674 21.7766 23.1674 19.0638V12.6088C22.9674 12.6408 22.7754 12.664 22.5755 12.664C20.7835 12.664 19.3275 11.2088 19.3275 9.40883Z" fill="#04AA6D"/>
<path d="M22.6877 7.38452C21.6237 7.38452 20.7598 8.2485 20.7598 9.31248C20.7598 10.3765 21.6237 11.2404 22.6877 11.2404C23.7517 11.2404 24.6157 10.3765 24.6157 9.31248C24.6157 8.2485 23.7517 7.38452 22.6877 7.38452Z" fill="#254377"/>
</svg>
